<svg xmlns="http://www.w3.org/2000/svg" viewBox="0 0 686.83 215.01"><defs><style>.cls-1{fill:#b5b5b1;}.cls-2{fill:#fff;}.cls-3{fill:#f5e6c7;}.cls-4{fill:#ead6b2;}</style></defs><title>Asset 5</title><g id="Layer_2" data-name="Layer 2"><g id="Layer_1-2" data-name="Layer 1"><path class="cls-1" d="M611.1,30.17c-16.33-5.48-72.76-5.81-86.12-1.59s-80.19-1.4-96.52-.14-47.52-6.91-69.8-2.67-44.55,2.82-69.79,0-68.31-7.06-96.52-7.14S128.5,17.3,116.61,17.4s-26.73,2.73-37.12,0S61.67,8.83,43.85,14.27s-31.19,2.12-31.19,2.12v190s7.43,7.05,22.28,8.47,74.25-8.47,106.92-14.12,32.67,8.47,53.46,7.05,92.06,0,102.46,0,84.64-5.64,98-9.87,52-4.23,69.79-2.85,56.42,5.67,81.67,0,25.25-1.38,44.55,0,34.15,2.85,56.43,0,38.6,0,38.6,0V21.1S627.44,35.65,611.1,30.17Z"/><path class="cls-2" d="M0,4.35S13.37,7.68,31.19,2.24s25.24.4,35.64,3.13,25.24.09,37.12,0S151.47,6.5,179.69,6.6s71.28,4.31,96.52,7.13,47.52,4.24,69.79,0,53.46,3.94,69.8,2.68,83.16,4.35,96.52.14,69.79-3.89,86.12,1.59,75.73-9.07,75.73-9.07v174s-16.33-2.85-38.6,0-37.13,1.39-56.43,0-19.3-5.67-44.55,0-63.85,1.39-81.67,0-56.43-1.37-69.79,2.86-87.62,9.87-98,9.87-81.67-1.4-102.46,0-20.79-12.7-53.46-7.05S37.13,204.26,22.28,202.84,0,194.38,0,194.38Z"/><path class="cls-3" d="M0,17.62s61.63,1.06,91.7,0,80.19,0,98,0,127,15.82,153.69,12.14,93.55-1.61,109.15,0,108-1.61,124.73,0,76.83,5.79,96.89,0V161.57s-34.52-4.24-54.56,0S566.15,169,545,166.86s-47.89,7.41-63.48,8.46-66.82-1-85.75,0-81.3,11.23-122.51,7.73-103.58-16.19-128.08-7.73S35.26,198.2,0,183.05Z"/><rect class="cls-4" x="43.06" y="57.04" width="588.04" height="4.23"/><rect class="cls-4" x="43.06" y="99.38" width="588.04" height="4.23"/><rect class="cls-4" x="43.06" y="141.71" width="588.04" height="4.23"/></g></g></svg>